# xmcd
# 
# Track frame offsets:
#     150
#     16694
#     37854
#     50972
#     71546
#     85795
#     101592
#     113000
#     127439
#     144950
#     161035
#     182396
# 
# Disc length: 2629
# 
# Revision: 3
# Processed by: cddbd v1.5.2PL0 Copyright (c) Steve Scherf et al.
# Submitted via: fre:ac v1.0.27
# 
DISCID=9a0a430c
DTITLE=Secret Sisters - Put Your Needle Down
DYEAR=2014
DGENRE=Country
TTITLE0=Rattle My Bones
TTITLE1=Iuka
TTITLE2=Dirty Lie
TTITLE3=The Pocket Knife
TTITLE4=Let There Be Lonely
TTITLE5=Black and Blue
TTITLE6=Lonely Island
TTITLE7=I Cannot Find a Way
TTITLE8=If I Don't
TTITLE9=Good Luck, Good Night, Goodbye
TTITLE10=Bad Habit
TTITLE11=River Jordan
EXTD=
EXTT0=
EXTT1=
EXTT2=
EXTT3=
EXTT4=
EXTT5=
EXTT6=
EXTT7=
EXTT8=
EXTT9=
EXTT10=
EXTT11=
PLAYORDER=
